<svg id="Layer_1" data-name="Layer 1" xmlns="http://www.w3.org/2000/svg" viewBox="0 0 200 200"><defs><style>.cls-1,.cls-3{fill:#1c3c50;}.cls-1{fill-rule:evenodd;}.cls-2{fill:#00aef0;}</style></defs><title>Pronto-Icons-2018</title><path class="cls-1" d="M162.77,155.27h-9.3V88.51a7.26,7.26,0,0,0-2.13-5.14h0a7.23,7.23,0,0,0-5.12-2.13H120.39v7a.37.37,0,0,1,.23-.07h25.58a.4.4,0,0,1,.27.1h0a.36.36,0,0,1,.12.27v66.77H53.76V110.35a.42.42,0,0,1,.07-.22l0,0a.39.39,0,0,1,.27-.12H79.72a.38.38,0,0,1,.22.07l0,0a.39.39,0,0,1,.12.26v-7.26h-26A7.26,7.26,0,0,0,49,105.21l-.22.25a7.21,7.21,0,0,0-1.91,4.89v44.93h-9.3a3.45,3.45,0,0,0,0,6.89h125.2a3.45,3.45,0,0,0,0-6.89Z"/><path class="cls-2" d="M120.39,155.28h-8V47.72H87.95V155.28H80V43.73a4,4,0,0,1,4-4H116.4a4,4,0,0,1,4,4Z"/><path class="cls-2" d="M158.65,76.85A20.54,20.54,0,1,1,179.2,56.3,20.57,20.57,0,0,1,158.65,76.85Zm0-36.11A15.57,15.57,0,1,0,174.22,56.3,15.59,15.59,0,0,0,158.65,40.74Z"/><path class="cls-3" d="M158.65,66.48A2.49,2.49,0,0,1,156.17,64V48.24a2.49,2.49,0,1,1,5,0V64A2.49,2.49,0,0,1,158.65,66.48Z"/><path class="cls-3" d="M166.53,58.61H150.78a2.49,2.49,0,0,1,0-5h15.75a2.49,2.49,0,0,1,0,5Z"/></svg>