<svg id="Layer_1" data-name="Layer 1" xmlns="http://www.w3.org/2000/svg" viewBox="0 0 200 200"><defs><style>.cls-1{fill:#1c3c50;}.cls-1,.cls-2{fill-rule:evenodd;}.cls-2,.cls-3{fill:#00aef0;}</style></defs><title>Pronto-Icons-2018</title><path class="cls-1" d="M49.76,134.14v-6.45a8,8,0,0,1,8-8h4.66A8,8,0,0,1,68.05,122h0a8,8,0,0,1,2.34,5.65v6.45a8,8,0,0,1-8,8H57.75a8,8,0,0,1-8-8Zm4.82-5.5v4.56a3.48,3.48,0,0,0,3.48,3.48h4a3.48,3.48,0,0,0,3.48-3.48v-4.56a3.48,3.48,0,0,0-1-2.46h0a3.48,3.48,0,0,0-2.46-1h-4a3.48,3.48,0,0,0-3.48,3.48Z"/><path class="cls-1" d="M74.22,134.14V119.22a8,8,0,0,1,8-8h4.66a8,8,0,0,1,5.64,2.34h0a8,8,0,0,1,2.34,5.65v14.92a8,8,0,0,1-8,8H82.21a8,8,0,0,1-8-8Zm4.82-14v13a3.48,3.48,0,0,0,3.48,3.48h4A3.48,3.48,0,0,0,90,133.2v-13a3.48,3.48,0,0,0-1-2.46h0a3.48,3.48,0,0,0-2.46-1h-4A3.48,3.48,0,0,0,79,120.16Z"/><path class="cls-1" d="M98.77,134.14v-27.2a8,8,0,0,1,8-8h4.66a8,8,0,0,1,5.64,2.34h0a8,8,0,0,1,2.34,5.65v27.2a8,8,0,0,1-8,8h-4.66a8,8,0,0,1-8-8Zm4.82-26.25V133.2a3.48,3.48,0,0,0,3.48,3.48h4a3.48,3.48,0,0,0,3.48-3.48V107.89a3.48,3.48,0,0,0-1-2.46h0a3.48,3.48,0,0,0-2.46-1h-4a3.48,3.48,0,0,0-3.48,3.48Z"/><path class="cls-1" d="M192.48,65l-.2-.25a6.28,6.28,0,0,0-3-2l-9.29-3-1.69-4.08L182.82,47a6.23,6.23,0,0,0-1.13-7.28l-9.13-9.14a6.24,6.24,0,0,0-7.28-1.13L156.59,34l-4.07-1.68-3-9.3a6.27,6.27,0,0,0-2.26-3.16l-.26-.17a6.24,6.24,0,0,0-3.44-1H130.72a6.24,6.24,0,0,0-6,4.36l-3,9.3L117.72,34,109,29.5a6.26,6.26,0,0,0-7.29,1.13l-9.12,9.12-.23.25a6.23,6.23,0,0,0-.9,7L96,55.74l-1.69,4.06-4,1.28H82.06v4.13h64.42V123H151v-.32l1.47-4.61,4.07-1.69,8.69,4.49a6.26,6.26,0,0,0,7.3-1.13l9.12-9.12.23-.25a6.24,6.24,0,0,0,.91-7l-4.48-8.69L180,90.53l9.3-3a6.22,6.22,0,0,0,3.16-2.26l.18-.27a6.25,6.25,0,0,0,1-3.43V68.73A6.23,6.23,0,0,0,192.48,65ZM148,64.14h0a10.32,10.32,0,0,0-7.31-3h-24a24.94,24.94,0,0,1,6.74-6.61A24.84,24.84,0,0,1,157.8,89,24.93,24.93,0,0,1,151,95.76V71.44A10.32,10.32,0,0,0,148,64.14ZM187.26,81.5l-9.25,3a6.15,6.15,0,0,0-2.34,1.34A6.24,6.24,0,0,0,174.13,88l-1.74,4.2a6.12,6.12,0,0,0-.48,2.64,6.25,6.25,0,0,0,.69,2.61l4.46,8.65-9,9-8.64-4.47a6.3,6.3,0,0,0-2.61-.69,6.15,6.15,0,0,0-2.65.48L151,111.71v-8.55a31.25,31.25,0,1,0-41.78-42.07h-8.57l1.23-3a6.13,6.13,0,0,0-.22-5.25l-4.46-8.65,9-9,8.65,4.46a6.22,6.22,0,0,0,2.6.7h0a6.2,6.2,0,0,0,2.65-.48l4.2-1.74a6.25,6.25,0,0,0,2.21-1.53,6.11,6.11,0,0,0,1.34-2.34c.95-3,1.9-6.3,3-9.26h12.66l3,9.25a6.25,6.25,0,0,0,1.34,2.35A6.14,6.14,0,0,0,150,38.2l4.19,1.74a6.18,6.18,0,0,0,5.27-.22l8.65-4.46,9,9-4.47,8.65a6.24,6.24,0,0,0-.69,2.61,6.11,6.11,0,0,0,.4,2.44l.08.21,1.74,4.2A6.08,6.08,0,0,0,178,65.88l9.25,3Z"/><path class="cls-2" d="M119,152.4v.77a3.22,3.22,0,0,1-6.43,0v-.77H12.93a.2.2,0,0,0-.13,0h0a.21.21,0,0,0-.06.13v6.12a.21.21,0,0,0,.06.13.2.2,0,0,0,.13.06H156.15a.19.19,0,0,0,.13-.06.17.17,0,0,0,.06-.13v-6.12a.17.17,0,0,0-.06-.13l0,0-.1,0h-7.27a3.22,3.22,0,0,1-1.82-.56,3.23,3.23,0,0,1-1.82.56h-4.13v.77a3.22,3.22,0,0,1-6.43,0v-.77H130v.77a3.22,3.22,0,0,1-6.43,0v-.77Zm32.92-6.4V67.08a6.62,6.62,0,0,0-6.62-6.62H23.4a6.63,6.63,0,0,0-6.62,6.62V146H12.93a6.6,6.6,0,0,0-4.67,2h0a6.6,6.6,0,0,0-1.94,4.68v6.12a6.63,6.63,0,0,0,6.62,6.62H156.15a6.63,6.63,0,0,0,6.62-6.62v-6.12a6.59,6.59,0,0,0-1.94-4.68l-.24-.22a6.6,6.6,0,0,0-4.44-1.72h-3.85l-.42,0ZM23.4,66.89a.19.19,0,0,0-.19.19V146H145.45V67.08a.19.19,0,0,0-.06-.13.17.17,0,0,0-.13-.06Zm24.35,7.63a3.21,3.21,0,0,1,0,6.43H38a3.21,3.21,0,0,1,0-6.43Zm82.93,0a3.21,3.21,0,0,1,0,6.43h-2.41a3.21,3.21,0,0,1,0-6.43Zm-10.65,0A3.21,3.21,0,0,1,120,81h-2.41a3.21,3.21,0,0,1,0-6.43Z"/><rect class="cls-3" x="20.74" y="85.71" width="128.55" height="4.66"/></svg>