<svg id="Layer_1" data-name="Layer 1" xmlns="http://www.w3.org/2000/svg" viewBox="0 0 200 200"><defs><style>.cls-1{fill:#1c3c50;fill-rule:evenodd;}.cls-2{fill:#00aef0;}</style></defs><title>Pronto-Icons-2018</title><path class="cls-1" d="M162.43,154.18h-9.27V87.59A7.25,7.25,0,0,0,151,82.46h0a7.22,7.22,0,0,0-5.11-2.13H120.17v6.95a.37.37,0,0,1,.23-.07h25.51a.4.4,0,0,1,.27.1h0a.36.36,0,0,1,.12.27v66.59H53.71V109.37a.42.42,0,0,1,.07-.22l0,0a.39.39,0,0,1,.26-.12H79.6a.38.38,0,0,1,.22.07l0,0a.39.39,0,0,1,.12.26v-7.24H54.09A7.24,7.24,0,0,0,49,104.25l-.22.25a7.2,7.2,0,0,0-1.9,4.88v44.81H37.57a3.44,3.44,0,0,0,0,6.87H162.43a3.44,3.44,0,0,0,0-6.87Z"/><path class="cls-2" d="M120.16,154.18h-8V46.91H87.81V154.18h-8V42.93a4,4,0,0,1,4-4h32.36a4,4,0,0,1,4,4Z"/></svg>