<svg id="Layer_1" data-name="Layer 1" xmlns="http://www.w3.org/2000/svg" viewBox="0 0 200 200"><defs><style>.cls-1{fill:#00aef0;}.cls-1,.cls-2{fill-rule:evenodd;}.cls-2{fill:#1c3c50;}</style></defs><title>Pronto-Icons-2018</title><path class="cls-1" d="M134.42,152.4v.77a3.22,3.22,0,0,1-6.43,0v-.77H28.39a.2.2,0,0,0-.13,0h0a.21.21,0,0,0-.06.13v6.12a.21.21,0,0,0,.06.13.2.2,0,0,0,.13.06H171.61a.19.19,0,0,0,.13-.06.17.17,0,0,0,.06-.13v-6.12a.17.17,0,0,0-.06-.13l0,0-.1,0h-7.27a3.22,3.22,0,0,1-1.82-.56,3.23,3.23,0,0,1-1.82.56h-4.13v.77a3.22,3.22,0,0,1-6.43,0v-.77H145.5v.77a3.22,3.22,0,0,1-6.43,0v-.77Zm32.92-6.4V67.08a6.62,6.62,0,0,0-6.62-6.62H38.85a6.63,6.63,0,0,0-6.62,6.62V146H28.39a6.6,6.6,0,0,0-4.67,2h0a6.6,6.6,0,0,0-1.94,4.68v6.12a6.63,6.63,0,0,0,6.62,6.62H171.61a6.63,6.63,0,0,0,6.62-6.62v-6.12a6.59,6.59,0,0,0-1.94-4.68l-.24-.22a6.6,6.6,0,0,0-4.44-1.72h-3.85l-.42,0ZM38.85,66.89a.19.19,0,0,0-.19.19V146H160.91V67.08a.19.19,0,0,0-.06-.13.17.17,0,0,0-.13-.06ZM146,127.66a3.22,3.22,0,0,1,0,6.43H53.75a3.22,3.22,0,1,1,0-6.43ZM63.2,74.52a3.21,3.21,0,0,1,0,6.43H53.43a3.21,3.21,0,0,1,0-6.43Zm82.93,0a3.21,3.21,0,0,1,0,6.43h-2.41a3.21,3.21,0,0,1,0-6.43Zm-10.65,0a3.21,3.21,0,0,1,0,6.43h-2.41a3.21,3.21,0,0,1,0-6.43Zm-5.4,43.19a3.22,3.22,0,0,1,0,6.43h-60a3.22,3.22,0,0,1,0-6.43Z"/><path class="cls-2" d="M145.36,85.94H53.75a3.22,3.22,0,0,0-3.22,3.21V109a3.22,3.22,0,0,0,3.22,3.22h91.61a3.22,3.22,0,0,0,3.22-3.22V89.16A3.22,3.22,0,0,0,145.36,85.94Zm-3.21,19.8H57V92.37h85.18Z"/></svg>