<svg id="Layer_1" data-name="Layer 1" xmlns="http://www.w3.org/2000/svg" viewBox="0 0 200 200"><defs><style>.cls-1{fill:#1c3c50;}.cls-1,.cls-2{fill-rule:evenodd;}.cls-2{fill:#00aef0;}</style></defs><title>Pronto-Icons-2018</title><path class="cls-1" d="M142.8,101.31a3.4,3.4,0,0,1,0,6.79H109.28a3.4,3.4,0,1,1,0-6.79ZM103.4,61.37v.82a3.4,3.4,0,0,1-6.79,0v-.82h-61a.2.2,0,0,0-.2.2v83.32h129.1V61.57a.2.2,0,0,0-.06-.14.21.21,0,0,0-.14-.06Zm33,90.31v.81a3.4,3.4,0,1,1-6.79,0v-.81H24.37a.19.19,0,0,0-.14.05h0a.21.21,0,0,0-.06.14v6.46a.21.21,0,0,0,.06.14.2.2,0,0,0,.14.06H175.63a.19.19,0,0,0,.14-.06.18.18,0,0,0,.06-.14v-6.46a.19.19,0,0,0-.06-.14l0,0a.22.22,0,0,0-.11,0H159.75v.81a3.4,3.4,0,1,1-6.79,0v-.81H148v.81a3.4,3.4,0,1,1-6.79,0v-.81ZM35.65,54.58a7,7,0,0,0-7,7v83.32H24.37a7,7,0,0,0-4.93,2.06h0a7,7,0,0,0-2.05,4.94v6.46a7,7,0,0,0,7,7H175.63a7,7,0,0,0,7-7v-6.46a7,7,0,0,0-2-4.94l-.25-.23a7,7,0,0,0-4.69-1.82h-4.28V61.57a7,7,0,0,0-7-7H35.65ZM142.8,120.42a3.4,3.4,0,0,1,0,6.79H109.28a3.4,3.4,0,1,1,0-6.79Zm0-38.22a3.39,3.39,0,0,1,0,6.79H109.28a3.39,3.39,0,1,1,0-6.79Z"/><path class="cls-2" d="M75.76,79.05a14.76,14.76,0,0,1,10.45,4.33l0,0a14.8,14.8,0,0,1,0,20.92l-.12.11a22.14,22.14,0,0,1,5.19,3.85,21.91,21.91,0,0,1,6.43,15.53,3.4,3.4,0,0,1-3.39,3.4H57.2a3.39,3.39,0,0,1-3.39-3.4,21.91,21.91,0,0,1,6.42-15.5l0,0a22,22,0,0,1,5.17-3.84l-.13-.12a14.78,14.78,0,0,1,0-20.93h0a14.78,14.78,0,0,1,10.47-4.33Zm.49,29.6a15.17,15.17,0,0,1,14.31,11.77H61a15.1,15.1,0,0,1,4-7.33h0a15.1,15.1,0,0,1,10.23-4.42h1Zm5.18-20.47a8,8,0,0,1,0,11.34l-.15.15a8,8,0,0,1-5.08,2.18h-.87a8,8,0,0,1-5.25-13.67h0a8,8,0,0,1,11.34,0Z"/></svg>