<svg id="Layer_1" data-name="Layer 1" xmlns="http://www.w3.org/2000/svg" viewBox="0 0 200 200"><defs><style>.cls-1{fill:#1c3c50;}.cls-1,.cls-2{fill-rule:evenodd;}.cls-2{fill:#00aef0;}</style></defs><title>Pronto-Icons-2018</title><path class="cls-1" d="M192.79,65l-.2-.25a6.28,6.28,0,0,0-3-2l-9.29-3-1.69-4.08L183.13,47A6.23,6.23,0,0,0,182,39.77l-9.13-9.14a6.24,6.24,0,0,0-7.28-1.13L156.9,34l-4.07-1.68-3-9.3a6.27,6.27,0,0,0-2.26-3.16l-.26-.17a6.24,6.24,0,0,0-3.44-1H131a6.24,6.24,0,0,0-6,4.36l-3,9.3L118,34l-8.69-4.48A6.26,6.26,0,0,0,102,30.63l-9.12,9.12L92.7,40a6.23,6.23,0,0,0-.9,7l4.48,8.69-1.69,4.06-4,1.28H82.37v4.13h64.42V123h4.56v-.32l1.47-4.61,4.07-1.69,8.69,4.49a6.26,6.26,0,0,0,7.3-1.13l9.12-9.12.23-.25a6.24,6.24,0,0,0,.91-7l-4.48-8.69,1.68-4.07,9.3-3a6.22,6.22,0,0,0,3.16-2.26L193,85a6.25,6.25,0,0,0,1-3.43V68.73A6.23,6.23,0,0,0,192.79,65Zm-44.48-.9h0a10.32,10.32,0,0,0-7.31-3H117a24.94,24.94,0,0,1,6.74-6.61A24.84,24.84,0,0,1,158.11,89a24.93,24.93,0,0,1-6.76,6.79V71.44A10.32,10.32,0,0,0,148.31,64.14ZM187.57,81.5l-9.25,3A6.15,6.15,0,0,0,176,85.79,6.24,6.24,0,0,0,174.44,88l-1.74,4.2a6.12,6.12,0,0,0-.48,2.64,6.25,6.25,0,0,0,.69,2.61l4.46,8.65-9,9-8.64-4.47a6.3,6.3,0,0,0-2.61-.69,6.15,6.15,0,0,0-2.65.48l-3.15,1.31v-8.55a31.25,31.25,0,1,0-41.78-42.07H101l1.23-3a6.13,6.13,0,0,0-.22-5.25l-4.46-8.65,9-9,8.65,4.46a6.22,6.22,0,0,0,2.6.7h0a6.2,6.2,0,0,0,2.65-.48l4.2-1.74a6.25,6.25,0,0,0,2.21-1.53,6.11,6.11,0,0,0,1.34-2.34c.95-3,1.9-6.3,3-9.26h12.66l3,9.25a6.25,6.25,0,0,0,1.34,2.35,6.14,6.14,0,0,0,2.22,1.54l4.19,1.74a6.18,6.18,0,0,0,5.27-.22l8.65-4.46,9,9-4.47,8.65a6.24,6.24,0,0,0-.69,2.61,6.11,6.11,0,0,0,.4,2.44l.08.21,1.74,4.2a6.08,6.08,0,0,0,3.88,3.56l9.25,3Z"/><path class="cls-2" d="M118.65,152.4v.77a3.22,3.22,0,0,1-6.43,0v-.77H12.62a.2.2,0,0,0-.13,0h0a.21.21,0,0,0-.06.13v6.12a.21.21,0,0,0,.06.13.2.2,0,0,0,.13.06H155.84a.19.19,0,0,0,.13-.06.17.17,0,0,0,.06-.13v-6.12a.17.17,0,0,0-.06-.13l0,0-.1,0h-7.27a3.22,3.22,0,0,1-1.82-.56,3.23,3.23,0,0,1-1.82.56h-4.13v.77a3.22,3.22,0,0,1-6.43,0v-.77h-4.65v.77a3.22,3.22,0,0,1-6.43,0v-.77Zm32.92-6.4V67.08A6.62,6.62,0,0,0,145,60.46H23.08a6.63,6.63,0,0,0-6.62,6.62V146H12.62a6.6,6.6,0,0,0-4.67,2h0A6.6,6.6,0,0,0,6,152.59v6.12a6.63,6.63,0,0,0,6.62,6.62H155.84a6.63,6.63,0,0,0,6.62-6.62v-6.12a6.59,6.59,0,0,0-1.94-4.68l-.24-.22a6.6,6.6,0,0,0-4.44-1.72H152l-.42,0ZM23.08,66.89a.19.19,0,0,0-.19.19V146H145.14V67.08a.19.19,0,0,0-.06-.13.17.17,0,0,0-.13-.06Zm107.13,60.77a3.22,3.22,0,0,1,0,6.43H38a3.22,3.22,0,1,1,0-6.43ZM47.43,74.52a3.21,3.21,0,0,1,0,6.43H37.66a3.21,3.21,0,0,1,0-6.43Zm82.93,0a3.21,3.21,0,0,1,0,6.43H128a3.21,3.21,0,0,1,0-6.43Zm-10.65,0a3.21,3.21,0,0,1,0,6.43h-2.41a3.21,3.21,0,0,1,0-6.43Zm-5.4,43.19a3.22,3.22,0,0,1,0,6.43h-60a3.22,3.22,0,0,1,0-6.43Z"/><path class="cls-2" d="M129.59,85.94H38a3.22,3.22,0,0,0-3.22,3.21V109A3.22,3.22,0,0,0,38,112.17h91.61a3.22,3.22,0,0,0,3.22-3.22V89.16A3.22,3.22,0,0,0,129.59,85.94Zm-3.21,19.8H41.2V92.37h85.18Z"/></svg>