<svg id="Layer_1" data-name="Layer 1" xmlns="http://www.w3.org/2000/svg" viewBox="0 0 200 200"><defs><style>.cls-1,.cls-3{fill:#00aef0;}.cls-1,.cls-2{fill-rule:evenodd;}.cls-2{fill:#1c3c50;}</style></defs><title>Pronto-Icons-2018</title><path class="cls-1" d="M194.76,56.94a5.61,5.61,0,0,0-3.89-5.34l-13-4.18h0a.94.94,0,0,1-.37-.21,1.06,1.06,0,0,1-.24-.42l-4.18-13h0a5.6,5.6,0,0,0-10.66,0l-4.21,13a1.07,1.07,0,0,1-.24.43.94.94,0,0,1-.39.23l-13,4.18a5.6,5.6,0,0,0-2.83,2h0a5.58,5.58,0,0,0,2.82,8.62l13,4.19a1,1,0,0,1,.4.23,1,1,0,0,1,.24.4l4.21,13h0a5.67,5.67,0,0,0,2,2.83,5.59,5.59,0,0,0,6.63,0,5.66,5.66,0,0,0,2-2.82l4.2-13a1,1,0,0,1,.23-.4,1,1,0,0,1,.37-.22l13-4.19a5.55,5.55,0,0,0,2.82-2h0A5.59,5.59,0,0,0,194.76,56.94ZM176.05,60.8a6.8,6.8,0,0,0-2.78,1.68,7.08,7.08,0,0,0-1.68,2.79l-3.86,11.95-3.89-12a6.79,6.79,0,0,0-1.68-2.77,6.87,6.87,0,0,0-2.78-1.7l-12-3.86,12-3.85a6.85,6.85,0,0,0,4.47-4.48l3.88-12,3.85,12a7,7,0,0,0,1.69,2.8,6.91,6.91,0,0,0,2.8,1.7h0l12,3.84Z"/><path class="cls-1" d="M134,21.58l.88,2.87a3.27,3.27,0,0,0,2.23,2.23l2.87.88a2.43,2.43,0,0,1,0,4.64l-2.87.88a3.27,3.27,0,0,0-1.4.82h0a3.38,3.38,0,0,0-.82,1.4L134,38.2a2.43,2.43,0,0,1-4.64,0l-.89-2.87a3.27,3.27,0,0,0-.83-1.4,3.35,3.35,0,0,0-1.4-.83l-2.87-.88a2.43,2.43,0,0,1,0-4.64l2.87-.88a3.38,3.38,0,0,0,1.4-.83l.1-.09a3.34,3.34,0,0,0,.73-1.32l.89-2.87a2.43,2.43,0,0,1,4.64,0Z"/><path class="cls-1" d="M187.36,94.12l.88,2.87a3.27,3.27,0,0,0,2.23,2.23l2.87.88a2.43,2.43,0,0,1,0,4.64l-2.87.88a3.27,3.27,0,0,0-1.4.82h0a3.38,3.38,0,0,0-.82,1.4l-.88,2.87a2.43,2.43,0,0,1-4.64,0l-.89-2.87a3.27,3.27,0,0,0-.83-1.4,3.35,3.35,0,0,0-1.4-.83l-2.87-.88a2.43,2.43,0,0,1,0-4.64l2.87-.88a3.38,3.38,0,0,0,1.4-.83l.1-.09a3.34,3.34,0,0,0,.73-1.32l.89-2.87a2.43,2.43,0,0,1,4.64,0Z"/><path class="cls-2" d="M161,156h-9.31V89.13A7.28,7.28,0,0,0,149.6,84h0a7.25,7.25,0,0,0-5.14-2.14H118.58v7a.37.37,0,0,1,.23-.07h25.63a.4.4,0,0,1,.27.1h0a.36.36,0,0,1,.12.27V156h-93V111a.42.42,0,0,1,.07-.22l0,0a.39.39,0,0,1,.27-.12H77.82a.38.38,0,0,1,.22.07l0,0a.39.39,0,0,1,.12.26v-7.27h-26A7.27,7.27,0,0,0,47,105.86l-.22.25A7.23,7.23,0,0,0,44.9,111v45H35.58a3.45,3.45,0,0,0,0,6.91H161a3.45,3.45,0,0,0,0-6.91Z"/><path class="cls-3" d="M118.57,156h-8V48.26H86.06V156h-8V44.25a4,4,0,0,1,4-4h32.51a4,4,0,0,1,4,4Z"/></svg>