<svg id="Layer_1" data-name="Layer 1" xmlns="http://www.w3.org/2000/svg" viewBox="0 0 200 200"><defs><style>.cls-1,.cls-2{fill:#dcdcdc;}.cls-1{fill-rule:evenodd;}</style></defs><title>Pronto-Icons-2018</title><path class="cls-1" d="M51.35,126.83h0a3.67,3.67,0,0,1-1.59-2.16L41,91.9,144.82,64.07l7,26.09h6.64l-8.21-30.62,0-.23c0-.07,0-.15-.07-.23l-4.18-15.61-.06-.25c0-.08,0-.17-.07-.24l-.94-3.48a10,10,0,0,0-4.7-6.11l-.23-.12a10,10,0,0,0-7.43-.9L35.75,58.31a10.1,10.1,0,0,0-7.14,12.35l14.92,55.67a10.14,10.14,0,0,0,7.82,7.28ZM34.82,69a3.68,3.68,0,0,1,2.59-4.5l96.77-25.93a3.68,3.68,0,0,1,2.66.3l.12.07a3.67,3.67,0,0,1,1.72,2.23l.17.63L35,69.62Zm1.83,6.82L140.51,48l2.65,9.89L39.3,85.7Z"/><path class="cls-2" d="M106.82,145.71H91.09a3.21,3.21,0,1,0,0,6.43h15.74a3.21,3.21,0,0,0,0-6.43Z"/><path class="cls-2" d="M132,145.71H116.25a3.21,3.21,0,1,0,0,6.43H132a3.21,3.21,0,0,0,0-6.43Z"/><path class="cls-2" d="M81.66,145.71H65.92a3.21,3.21,0,0,0,0,6.43H81.66a3.21,3.21,0,0,0,0-6.43Z"/><path class="cls-2" d="M161.63,90.16H61.44a10.11,10.11,0,0,0-10.09,10.09v57.63A10.11,10.11,0,0,0,61.44,168H161.63a10.11,10.11,0,0,0,10.09-10.09V100.25a10.11,10.11,0,0,0-10.09-10.09Zm3.66,67.72a3.67,3.67,0,0,1-3.66,3.66H61.44a3.67,3.67,0,0,1-3.66-3.66V100.25a3.67,3.67,0,0,1,3.66-3.66H161.63a3.67,3.67,0,0,1,3.66,3.66Z"/><path class="cls-2" d="M157.16,102.19H133.74a3.21,3.21,0,0,0-3.21,3.21v14.34a3.21,3.21,0,0,0,3.21,3.21h23.42a3.21,3.21,0,0,0,3.21-3.21V105.41A3.21,3.21,0,0,0,157.16,102.19Zm-3.21,14.35H137v-7.92h17Z"/><path class="cls-2" d="M157.16,145.71H141.42a3.21,3.21,0,0,0,0,6.43h15.74a3.21,3.21,0,1,0,0-6.43Z"/></svg>