<svg xmlns="http://www.w3.org/2000/svg" viewBox="0 0 191.22 63.87"><defs><style>.cls-1{fill:#161e2a;}.cls-2{fill:#139be8;}</style></defs><title>pronto-logo</title><g id="Layer_2" data-name="Layer 2"><g id="Artwork"><path class="cls-1" d="M39,24.11a24.05,24.05,0,0,1-1.6,8.94,21.16,21.16,0,0,1-4.45,7,19.87,19.87,0,0,1-6.83,4.59,22.53,22.53,0,0,1-8.67,1.64,25.85,25.85,0,0,1-4.55-.4L9.91,58H0L11.12,11.66a59.39,59.39,0,0,1,6.13-1.44,41,41,0,0,1,7.47-.63,16.62,16.62,0,0,1,6.46,1.14,12.08,12.08,0,0,1,4.45,3.11,12.74,12.74,0,0,1,2.58,4.62A18.63,18.63,0,0,1,39,24.11ZM14.74,37.84a14,14,0,0,0,2.81.27,11.44,11.44,0,0,0,4.76-1A10.46,10.46,0,0,0,26,34.43a12.52,12.52,0,0,0,2.34-4.18,16.52,16.52,0,0,0,.84-5.39A9,9,0,0,0,27.86,20q-1.28-2-4.43-2a19.08,19.08,0,0,0-4,.4Z"/><path class="cls-1" d="M65.3,19l-2.65-.64a18.33,18.33,0,0,0-3.85-.3,14.67,14.67,0,0,0-2.08.17,16.94,16.94,0,0,0-1.87.37l-6.5,27.07h-10l8-33.36q2.88-.94,6.46-1.78A35.65,35.65,0,0,1,61,9.65a25.17,25.17,0,0,1,3.72.3,14,14,0,0,1,3.59,1Z"/><path class="cls-1" d="M106.46,12q1.14-.33,2.51-.77c.92-.29,1.94-.56,3.08-.8s2.41-.45,3.82-.6a43.63,43.63,0,0,1,4.79-.23q7.84,0,10.82,4.55t1,12.46l-4.55,19H118L122.4,27q.41-1.74.64-3.38a8.28,8.28,0,0,0,0-2.88,3.39,3.39,0,0,0-1.24-2,4.77,4.77,0,0,0-3-.77,20.17,20.17,0,0,0-4,.4l-6.49,27.27h-10Z"/><path class="cls-1" d="M141.53,1.6,151.91,0l-2.55,10.38h11.12l-2,8.17H147.42l-2.95,12.32a14.29,14.29,0,0,0-.47,2.88,5.31,5.31,0,0,0,.33,2.31,3,3,0,0,0,1.44,1.51,6.59,6.59,0,0,0,3,.54,16.06,16.06,0,0,0,3.12-.3,23.33,23.33,0,0,0,3-.84l.74,7.63a35.37,35.37,0,0,1-4.35,1.27,25.15,25.15,0,0,1-5.55.54A15.31,15.31,0,0,1,138.58,45,7.94,7.94,0,0,1,135,41.29a11.85,11.85,0,0,1-.94-5.46,35.28,35.28,0,0,1,.94-6.5Z"/><path class="cls-1" d="M171.4,46.55a16.25,16.25,0,0,1-6.17-1.07,11.39,11.39,0,0,1-4.32-3,13,13,0,0,1-2.58-4.59,18.79,18.79,0,0,1-.87-5.86,25.94,25.94,0,0,1,1.3-8,23,23,0,0,1,3.85-7.23,20.6,20.6,0,0,1,6.23-5.26,17.12,17.12,0,0,1,8.44-2,16.28,16.28,0,0,1,6.13,1.07,11.31,11.31,0,0,1,4.35,3,13,13,0,0,1,2.58,4.59,18.54,18.54,0,0,1,.87,5.86,26.52,26.52,0,0,1-1.27,8,23.44,23.44,0,0,1-3.75,7.23,19.73,19.73,0,0,1-6.2,5.26A17.59,17.59,0,0,1,171.4,46.55Zm5-28.67a6.25,6.25,0,0,0-3.89,1.27,10.9,10.9,0,0,0-2.81,3.22,15.82,15.82,0,0,0-1.71,4.25,18.2,18.2,0,0,0-.57,4.39,10.57,10.57,0,0,0,1.07,5.22q1.07,1.88,3.88,1.88a6.25,6.25,0,0,0,3.89-1.28A10.87,10.87,0,0,0,179,33.63a15.8,15.8,0,0,0,1.71-4.26,18.39,18.39,0,0,0,.57-4.39,10.6,10.6,0,0,0-1.07-5.22A4.09,4.09,0,0,0,176.35,17.89Z"/><path class="cls-2" d="M59.44,46c1-.8,2.19-1.77,3.54-2.9,2.45-2.06,6.69-3.79,11.59-5.8,5.16-2.12,11-4.52,16.16-7.82,6.42-4.12,10.25-12.77,12.07-18a76,76,0,0,1-13.35,6.31,95.11,95.11,0,0,0-15.34,7.22C66.12,29.82,61.54,40,59.44,46Z"/><path class="cls-1" d="M72.49,22.29a98,98,0,0,1,15.82-7.46c1.82-.72,3.6-1.43,5.35-2.19a11.92,11.92,0,0,0-3.48-2.13,16.22,16.22,0,0,0-6.12-1.07,17.16,17.16,0,0,0-8.44,2,20.68,20.68,0,0,0-6.23,5.26A23,23,0,0,0,65.54,24a26,26,0,0,0-1.21,5.89A30.42,30.42,0,0,1,72.49,22.29Z"/><path class="cls-1" d="M92.41,32C87,35.51,81,38,75.75,40.14c-2.72,1.12-5.22,2.14-7.25,3.16A11.76,11.76,0,0,0,72,45.48a16.2,16.2,0,0,0,6.16,1.07,17.56,17.56,0,0,0,8.61-2A19.69,19.69,0,0,0,93,39.25,23.18,23.18,0,0,0,96.72,32a26.88,26.88,0,0,0,1-4.76A24,24,0,0,1,92.41,32Z"/><path class="cls-2" d="M78.14,60.76V55.92c0-.71-.32-1.22-1.14-1.22a2,2,0,0,0-1.59.89v5.17h-2V55.92c0-.71-.32-1.22-1.14-1.22a2.09,2.09,0,0,0-1.59.89v5.17h-2V53.1h2v1a3.43,3.43,0,0,1,2.51-1.17,2,2,0,0,1,2.13,1.38,3.28,3.28,0,0,1,2.63-1.38,2,2,0,0,1,2.25,2.32v5.54Z"/><path class="cls-2" d="M92.39,60.76v-.81a3.12,3.12,0,0,1-2.43,1,2.54,2.54,0,0,1-2.65-2.54A2.43,2.43,0,0,1,90,55.94a3.13,3.13,0,0,1,2.43.94v-1c0-.78-.67-1.28-1.68-1.28a3.22,3.22,0,0,0-2.2.9l-.79-1.41a5,5,0,0,1,3.35-1.21c1.76,0,3.36.7,3.36,2.9v4.95Zm0-1.84V58a2,2,0,0,0-1.62-.68c-.79,0-1.44.43-1.44,1.16s.65,1.14,1.44,1.14A2,2,0,0,0,92.39,58.92Z"/><path class="cls-2" d="M102,60.76V53.1h2v1a3.36,3.36,0,0,1,2.44-1.22v2a2.6,2.6,0,0,0-2.44.82v5.06Z"/><path class="cls-2" d="M118.34,60.76l-2-3-.92,1v2h-2V50.18h2v6.33l2.9-3.41h2.47l-3,3.47,3.12,4.19Z"/><path class="cls-2" d="M126.9,56.92a3.91,3.91,0,0,1,4-4c2.3,0,3.84,1.71,3.84,4.2v.48H129a2.05,2.05,0,0,0,2.2,1.71,3.2,3.2,0,0,0,2-.75l.9,1.33A4.78,4.78,0,0,1,131,60.95,3.88,3.88,0,0,1,126.9,56.92Zm4-2.36A1.77,1.77,0,0,0,129,56.19h3.77A1.76,1.76,0,0,0,130.87,54.56Z"/><path class="cls-2" d="M142.21,58.84v-4h-1.27V53.1h1.27V51h2V53.1h1.55v1.76h-1.55V58.3c0,.49.25.86.7.86a1,1,0,0,0,.7-.24l.43,1.54a2.49,2.49,0,0,1-1.68.49A1.91,1.91,0,0,1,142.21,58.84Z"/><path class="cls-2" d="M152.59,51.07a1.2,1.2,0,0,1,2.39,0,1.2,1.2,0,1,1-2.39,0Zm.19,9.69V53.1h2v7.66Z"/><path class="cls-2" d="M167.6,60.76V56.13a1.24,1.24,0,0,0-1.41-1.43,2.24,2.24,0,0,0-1.74.89v5.17h-2V53.1h2v1a3.58,3.58,0,0,1,2.68-1.17,2.23,2.23,0,0,1,2.51,2.44v5.41Z"/><path class="cls-2" d="M177.08,62.72l.9-1.44a3.11,3.11,0,0,0,2.39.94,1.88,1.88,0,0,0,2.13-2V59.5a3,3,0,0,1-2.38,1.19c-1.9,0-3.38-1.33-3.38-3.89s1.44-3.9,3.38-3.9a2.93,2.93,0,0,1,2.38,1.17v-1h2v7.15c0,2.9-2.25,3.62-4.14,3.62A4.67,4.67,0,0,1,177.08,62.72ZM182.5,58V55.56a2.27,2.27,0,0,0-1.73-.86,2.12,2.12,0,0,0,0,4.22A2.28,2.28,0,0,0,182.5,58Z"/></g></g></svg>