<svg xmlns="http://www.w3.org/2000/svg" width="52" height="52" viewBox="0 0 52 52">
  <g id="icon-content" transform="translate(-387.325 -2239.593)">
    <g id="Group_1437-inner" data-name="Group 1437-inner" transform="translate(330.345 2198.337)">
      <path id="Path_2096" data-name="Path 2096" d="M77.826,116.74H88.3a1.251,1.251,0,0,0,0-2.5H77.826a1.251,1.251,0,0,0,0,2.5Z" transform="translate(-9.87 -40.795)" fill="#00aef0" fill-rule="evenodd"/>
      <path id="Path_2097" data-name="Path 2097" d="M77.826,102.928H97.175a1.251,1.251,0,0,0,0-2.5H77.826a1.251,1.251,0,0,0,0,2.5Z" transform="translate(-9.87 -32.984)" fill="#00aef0" fill-rule="evenodd"/>
      <path id="Path_2098" data-name="Path 2098" d="M77.826,89.112H97.175a1.251,1.251,0,0,0,0-2.5H77.826a1.251,1.251,0,0,0,0,2.5Z" transform="translate(-9.87 -25.171)" fill="#00aef0" fill-rule="evenodd"/>
      <path id="Path_2099" data-name="Path 2099" d="M63.153,47.474l-.084,0A1.531,1.531,0,0,0,61.624,49V88.379a1.526,1.526,0,0,0,.448,1.082l.048.051a1.522,1.522,0,0,0,1.032.4v-.005H91.482a1.544,1.544,0,0,0,1.541-1.534l0-10.245-2.491,2.49a1.223,1.223,0,0,1-.483.3l-9.18,3.753a1.956,1.956,0,0,1-2.153-.418h-.005a1.952,1.952,0,0,1-.541-1.026,1.984,1.984,0,0,1,.121-1.124l0,0,3.779-9.258a1.24,1.24,0,0,1,.275-.414L93.018,61.748l0-12.746h0a1.528,1.528,0,0,0-1.529-1.528H89.606V49.39a1.251,1.251,0,1,1-2.5,0V47.474H82.542V49.39a1.251,1.251,0,0,1-2.5,0V47.474H75.477V49.39a1.251,1.251,0,0,1-2.5,0V47.474H68.412V49.39a1.251,1.251,0,1,1-2.5,0V47.474ZM82.09,79.388l2.192-5.368L99.494,58.808a.6.6,0,0,1,.375-.188.213.213,0,0,1,.159.04l4.274,4.273a.216.216,0,0,1,.04.159.591.591,0,0,1-.189.381L88.939,78.682l-5.3,2.168a1.147,1.147,0,0,0-.342-1.181,1.286,1.286,0,0,0-1.205-.28ZM99.628,61.613a1.291,1.291,0,0,1,1.763-.042,1.144,1.144,0,0,1,.046,1.675L87.106,77.577a1.292,1.292,0,0,1-1.763.042,1.144,1.144,0,0,1-.044-1.676l14.329-14.33ZM95.512,75.64l0,12.748a4.049,4.049,0,0,1-4.032,4.025H63.153l0-.006a4.015,4.015,0,0,1-2.766-1.1l-.082-.075a4.015,4.015,0,0,1-1.182-2.848V49a4.041,4.041,0,0,1,3.895-4.026l.136-.007H65.91V43.35a1.251,1.251,0,0,1,2.5,0v1.621h4.562V43.35a1.251,1.251,0,0,1,2.5,0v1.621h4.562V43.35a1.251,1.251,0,0,1,2.5,0v1.621H87.1V43.35a1.251,1.251,0,0,1,2.5,0v1.621h1.876A4.051,4.051,0,0,1,95.513,49h-.005l0,10.253,2.215-2.215a3.1,3.1,0,0,1,1.988-.911,2.667,2.667,0,0,1,2.083.764l4.273,4.273a2.671,2.671,0,0,1,.763,2.083,3.1,3.1,0,0,1-.911,1.985Z" transform="translate(0)" fill="#1c3c50" fill-rule="evenodd"/>
    </g>
    <rect id="Group_1437-area" data-name="Group 1437-area" width="52" height="52" transform="translate(387.325 2239.593)" fill="none"/>
  </g>
</svg>
