<svg xmlns="http://www.w3.org/2000/svg" width="52" height="52" viewBox="0 0 52 52">
  <g id="icon-marketing-essentials" transform="translate(-432.646 -447.891)">
    <g id="icon-inner" transform="translate(437 453.828)">
      <g id="Group_1430" data-name="Group 1430">
        <path id="Path_2085" data-name="Path 2085" d="M-308.178-66.06h-3.047V-87.943a2.381,2.381,0,0,0-.7-1.685h-.005a2.371,2.371,0,0,0-1.68-.7h-8.46v2.283a.121.121,0,0,1,.076-.024h8.384a.13.13,0,0,1,.09.033l0,0a.119.119,0,0,1,.038.09V-66.06h-30.425V-80.784a.137.137,0,0,1,.022-.073l.016-.016a.128.128,0,0,1,.087-.038h8.384a.124.124,0,0,1,.073.022l.016.016a.127.127,0,0,1,.038.084v-2.378h-8.512a2.379,2.379,0,0,0-1.685.7l-.073.082a2.365,2.365,0,0,0-.625,1.6V-66.06h-3.047a1.129,1.129,0,0,0-1.128,1.131,1.129,1.129,0,0,0,1.128,1.128h41.034a1.127,1.127,0,0,0,1.128-1.128A1.127,1.127,0,0,0-308.178-66.06Z" transform="translate(350.34 103.928)" fill="#1c3c50" fill-rule="evenodd"/>
        <path id="Path_2086" data-name="Path 2086" d="M-281.821-102.506h-2.617v-35.252h-8.016v35.252h-2.617v-36.56a1.308,1.308,0,0,1,1.309-1.309h10.634a1.308,1.308,0,0,1,1.309,1.309Z" transform="translate(310.092 140.375)" fill="#00aef0"/>
      </g>
    </g>
    <rect id="icon-area" width="52" height="52" transform="translate(432.645 447.891)" fill="none"/>
  </g>
</svg>
