<svg xmlns="http://www.w3.org/2000/svg" width="52" height="52" viewBox="0 0 52 52">
  <g id="icon-advanced-website" transform="translate(-436.93 -445.966)">
    <g id="icon-advanced-website-inner" transform="translate(431 433.102)">
      <path id="Path_2108" data-name="Path 2108" d="M112.828,31.43l-.055-.069a1.736,1.736,0,0,0-.818-.554l-2.562-.818-.466-1.124,1.237-2.4a1.719,1.719,0,0,0-.312-2.009l-2.52-2.521a1.721,1.721,0,0,0-2.009-.311l-2.4,1.236L101.8,22.4l-.82-2.566a1.731,1.731,0,0,0-.622-.873l-.073-.048a1.72,1.72,0,0,0-.948-.284h-3.55a1.722,1.722,0,0,0-1.643,1.2L93.33,22.4l-1.124.465-2.4-1.236a1.727,1.727,0,0,0-2.012.311L85.28,24.456l-.062.069a1.718,1.718,0,0,0-.249,1.944l1.237,2.4-.466,1.121-1.1.353H82.368V31.48h17.77V47.411H101.4v-.088l.406-1.271,1.123-.466,2.4,1.237a1.727,1.727,0,0,0,2.012-.313L109.851,44l.062-.068a1.721,1.721,0,0,0,.25-1.944l-1.237-2.4.464-1.122,2.565-.819a1.715,1.715,0,0,0,.873-.623l.049-.073a1.724,1.724,0,0,0,.284-.947V32.45A1.721,1.721,0,0,0,112.828,31.43Zm-12.271-.247,0,0a2.846,2.846,0,0,0-2.016-.838H91.923a6.883,6.883,0,0,1,1.858-1.824,6.852,6.852,0,0,1,9.481,9.515,6.877,6.877,0,0,1-1.866,1.874V33.2A2.846,2.846,0,0,0,100.558,31.182Zm10.83,4.79-2.552.815a1.7,1.7,0,0,0-.647.369,1.72,1.72,0,0,0-.424.614l-.48,1.159a1.69,1.69,0,0,0-.132.728,1.721,1.721,0,0,0,.191.721l1.231,2.385L106.1,45.237,103.719,44a1.742,1.742,0,0,0-.721-.192,1.7,1.7,0,0,0-.731.134l-.87.361v-2.36A8.619,8.619,0,1,0,89.872,30.341H87.507l.34-.82a1.692,1.692,0,0,0-.061-1.448l-1.231-2.385,2.473-2.472,2.385,1.231a1.715,1.715,0,0,0,.717.193h0a1.711,1.711,0,0,0,.732-.133l1.158-.481a1.725,1.725,0,0,0,.61-.423A1.686,1.686,0,0,0,95,22.958c.261-.833.524-1.738.816-2.554h3.491l.816,2.552a1.726,1.726,0,0,0,.37.647,1.694,1.694,0,0,0,.613.424l1.156.48a1.7,1.7,0,0,0,1.452-.06l2.385-1.231,2.472,2.47-1.232,2.387a1.719,1.719,0,0,0-.191.721,1.682,1.682,0,0,0,.11.673l.022.059.481,1.157a1.708,1.708,0,0,0,.423.612,1.728,1.728,0,0,0,.648.37l2.551.815Z" transform="translate(-55.302)" fill="#1c3c50" fill-rule="evenodd"/>
      <path id="Path_2109" data-name="Path 2109" d="M37.075,85.822v.213a.887.887,0,0,1-1.774,0v-.213H7.825a.056.056,0,0,0-.036.013v0a.058.058,0,0,0-.015.036v1.688a.058.058,0,0,0,.015.036.055.055,0,0,0,.036.016H47.334a.051.051,0,0,0,.036-.016.048.048,0,0,0,.016-.036V85.874a.046.046,0,0,0-.016-.036l-.009-.009a.058.058,0,0,0-.027-.007H45.328a.887.887,0,0,1-.5-.155.89.89,0,0,1-.5.155H43.186v.213a.887.887,0,0,1-1.774,0v-.213H40.131v.213a.887.887,0,0,1-1.774,0v-.213Zm9.08-1.766V62.286A1.828,1.828,0,0,0,44.33,60.46H10.713a1.829,1.829,0,0,0-1.826,1.826V84.048H7.825a1.821,1.821,0,0,0-1.288.538v0A1.821,1.821,0,0,0,6,85.874v1.688a1.829,1.829,0,0,0,1.825,1.826H47.334a1.829,1.829,0,0,0,1.826-1.826V85.874a1.818,1.818,0,0,0-.536-1.29l-.065-.06a1.819,1.819,0,0,0-1.225-.476H46.273a.95.95,0,0,0-.117.008ZM10.713,62.234a.053.053,0,0,0-.052.052V84.048H44.383V62.286a.054.054,0,0,0-.016-.036.048.048,0,0,0-.037-.015ZM40.264,79a.887.887,0,0,1,0,1.774H14.822a.887.887,0,1,1,0-1.774ZM17.429,64.34a.887.887,0,1,1,0,1.774h-2.7a.887.887,0,0,1,0-1.774Zm22.876,0a.887.887,0,0,1,0,1.774h-.664a.887.887,0,1,1,0-1.774Zm-2.937,0a.887.887,0,1,1,0,1.774H36.7a.887.887,0,0,1,0-1.774ZM35.879,76.254a.887.887,0,0,1,0,1.774H19.323a.887.887,0,0,1,0-1.774Z" transform="translate(0 -30.291)" fill="#00aef0" fill-rule="evenodd"/>
      <path id="Path_2110" data-name="Path 2110" d="M60.923,85.942H35.653a.888.888,0,0,0-.887.887v5.462a.887.887,0,0,0,.887.887h25.27a.887.887,0,0,0,.887-.887V86.829A.888.888,0,0,0,60.923,85.942ZM60.036,91.4H36.54V87.716h23.5Z" transform="translate(-20.831 -48.744)" fill="#00aef0" fill-rule="evenodd"/>
    </g>
    <rect id="icon-advanced-website-area" width="52" height="52" transform="translate(436.93 445.966)" fill="none"/>
  </g>
</svg>
