<svg xmlns="http://www.w3.org/2000/svg" width="52" height="52" viewBox="0 0 52 52">
  <g id="icon-marketing-plus" transform="translate(-435.886 -441.674)">
    <g id="icon-inner" transform="translate(1557.75 2973.935)">
      <g id="Group_1435" data-name="Group 1435" transform="translate(-1120.75 -2522.608)">
        <g id="Group_1434" data-name="Group 1434" transform="translate(0 0)">
          <path id="Path_2092" data-name="Path 2092" d="M-1078.5-2428.157h-3.053v-21.929a2.386,2.386,0,0,0-.7-1.689h-.005a2.377,2.377,0,0,0-1.683-.7h-8.478v2.288a.122.122,0,0,1,.076-.024h8.4a.129.129,0,0,1,.09.033l0,0a.12.12,0,0,1,.038.09v21.929H-1114.3v-14.756a.137.137,0,0,1,.022-.073l.016-.016a.129.129,0,0,1,.087-.038h8.4a.123.123,0,0,1,.073.022l.016.016a.127.127,0,0,1,.038.084v-2.383h-8.53a2.383,2.383,0,0,0-1.688.7l-.074.082a2.369,2.369,0,0,0-.626,1.607v14.756h-3.053a1.132,1.132,0,0,0-1.13,1.133,1.131,1.131,0,0,0,1.13,1.13h41.121a1.129,1.129,0,0,0,1.13-1.13A1.13,1.13,0,0,0-1078.5-2428.157Z" transform="translate(1120.75 2466.105)" fill="#1c3c50" fill-rule="evenodd"/>
          <path id="Path_2093" data-name="Path 2093" d="M-1052.2-2464.574h-2.623V-2499.9h-8.033v35.326h-2.623v-36.637a1.311,1.311,0,0,1,1.312-1.312h10.656a1.311,1.311,0,0,1,1.311,1.312Z" transform="translate(1080.534 2502.523)" fill="#00aef0"/>
        </g>
      </g>
      <path id="Path_2094" data-name="Path 2094" d="M-979.1-2487.888a.6.6,0,0,1-.363.307.838.838,0,0,1-.475.029,6.146,6.146,0,0,1-1.789-1.062.592.592,0,0,1-.251-.419.834.834,0,0,1,.084-.475l.447-.783a5.576,5.576,0,0,1-.894-1.51h-.894a.707.707,0,0,1-.475-.167.559.559,0,0,1-.2-.447,5.5,5.5,0,0,1-.056-2.068.752.752,0,0,1,.252-.391.707.707,0,0,1,.475-.168h.894a6.55,6.55,0,0,1,.894-1.565l-.447-.782a.835.835,0,0,1-.084-.475.591.591,0,0,1,.251-.419,6.944,6.944,0,0,1,1.789-1.007.6.6,0,0,1,.475-.028.6.6,0,0,1,.363.307l.447.839a4.823,4.823,0,0,1,1.789,0l.447-.839a.6.6,0,0,1,.363-.307.6.6,0,0,1,.475.028,5.29,5.29,0,0,1,1.789,1.007.592.592,0,0,1,.252.419.836.836,0,0,1-.084.475l-.447.782a6.55,6.55,0,0,1,.894,1.565h.894a.707.707,0,0,1,.475.168.5.5,0,0,1,.2.391,4.835,4.835,0,0,1,0,2.068.559.559,0,0,1-.2.447.706.706,0,0,1-.475.167h-.894a5.576,5.576,0,0,1-.894,1.51l.447.783a.835.835,0,0,1,.084.475.593.593,0,0,1-.252.419,6.145,6.145,0,0,1-1.789,1.063.838.838,0,0,1-.475-.029.6.6,0,0,1-.363-.307l-.447-.782a4.823,4.823,0,0,1-1.789,0Zm1.929-3.605a1.879,1.879,0,0,0,1.342-1.342,2.31,2.31,0,0,0-.475-2.1,2.12,2.12,0,0,0-2.041-.448,1.95,1.95,0,0,0-1.341,1.37,2.184,2.184,0,0,0,.475,2.04A2.184,2.184,0,0,0-977.173-2491.494Z" transform="translate(-99.48 -22.389)" fill="#00aef0"/>
      <path id="Path_2095" data-name="Path 2095" d="M-993.079-2522.687a.381.381,0,0,1-.1.286.53.53,0,0,1-.249.17,3.909,3.909,0,0,1-1.32,0,.377.377,0,0,1-.273-.146.529.529,0,0,1-.109-.286l-.012-.572a3.541,3.541,0,0,1-.978-.53l-.487.291a.448.448,0,0,1-.313.064.355.355,0,0,1-.252-.18,3.492,3.492,0,0,1-.7-1.108.477.477,0,0,1,.01-.295.447.447,0,0,1,.2-.246l.487-.292a4.164,4.164,0,0,1-.023-1.143l-.5-.281a.53.53,0,0,1-.2-.231.376.376,0,0,1,0-.31,4.416,4.416,0,0,1,.646-1.13.381.381,0,0,1,.25-.17.382.382,0,0,1,.3.049l.517.311a3.053,3.053,0,0,1,.974-.583l-.03-.6a.381.381,0,0,1,.1-.286.379.379,0,0,1,.268-.139,3.355,3.355,0,0,1,1.3-.035.376.376,0,0,1,.273.146.532.532,0,0,1,.109.286l.011.572a4.173,4.173,0,0,1,1,.561l.487-.291a.447.447,0,0,1,.313-.063.318.318,0,0,1,.234.149,3.07,3.07,0,0,1,.674,1.126.355.355,0,0,1,.039.307.448.448,0,0,1-.2.246l-.487.292a3.533,3.533,0,0,1,0,1.113l.5.28a.532.532,0,0,1,.2.231.375.375,0,0,1,0,.31,3.9,3.9,0,0,1-.628,1.161.532.532,0,0,1-.268.14.381.381,0,0,1-.3-.049l-.5-.28a3.069,3.069,0,0,1-.974.583Zm-.125-2.591a1.192,1.192,0,0,0,.293-1.167,1.465,1.465,0,0,0-.941-.986,1.345,1.345,0,0,0-1.257.421,1.237,1.237,0,0,0-.284,1.183,1.387,1.387,0,0,0,.923.956A1.386,1.386,0,0,0-993.2-2525.278Z" transform="translate(-89.37)" fill="#1c3c50"/>
    </g>
    <rect id="icon-area" width="52" height="52" transform="translate(435.885 441.674)" fill="none"/>
  </g>
</svg>
