<svg xmlns="http://www.w3.org/2000/svg" width="52" height="52" viewBox="0 0 52 52">
  <g id="icon-elite-website" transform="translate(-437.043 -446.515)">
    <g id="icon-inner" transform="translate(431.689 434.279)">
      <g id="Group_1456" data-name="Group 1456" transform="translate(17.924 45.647)">
        <path id="Path_2111" data-name="Path 2111" d="M49.759,123.565v-1.723a2.142,2.142,0,0,1,2.136-2.135h1.247a2.128,2.128,0,0,1,1.507.626h0a2.13,2.13,0,0,1,.626,1.509v1.723a2.143,2.143,0,0,1-2.135,2.135H51.9a2.144,2.144,0,0,1-2.136-2.135Zm1.289-1.471v1.219a.929.929,0,0,0,.93.93h1.079a.929.929,0,0,0,.93-.93v-1.219a.93.93,0,0,0-.273-.657h0a.93.93,0,0,0-.658-.272H51.979a.929.929,0,0,0-.93.93Z" transform="translate(-49.759 -119.707)" fill="#1c3c50" fill-rule="evenodd"/>
      </g>
      <g id="Group_1457" data-name="Group 1457" transform="translate(24.462 43.381)">
        <path id="Path_2112" data-name="Path 2112" d="M74.219,117.354v-3.988a2.143,2.143,0,0,1,2.136-2.135H77.6a2.129,2.129,0,0,1,1.507.626h0a2.132,2.132,0,0,1,.626,1.509v3.988a2.143,2.143,0,0,1-2.135,2.135H76.355a2.144,2.144,0,0,1-2.136-2.135Zm1.289-3.737V117.1a.929.929,0,0,0,.93.93h1.079a.929.929,0,0,0,.93-.93v-3.484a.93.93,0,0,0-.273-.657h0a.93.93,0,0,0-.658-.272H76.439a.929.929,0,0,0-.93.93Z" transform="translate(-74.219 -111.23)" fill="#1c3c50" fill-rule="evenodd"/>
      </g>
      <g id="Group_1458" data-name="Group 1458" transform="translate(31.024 40.101)">
        <path id="Path_2113" data-name="Path 2113" d="M98.767,108.36v-7.269a2.143,2.143,0,0,1,2.136-2.135h1.247a2.129,2.129,0,0,1,1.507.626h0a2.132,2.132,0,0,1,.626,1.509v7.269a2.143,2.143,0,0,1-2.135,2.135H100.9a2.144,2.144,0,0,1-2.136-2.135Zm1.289-7.017v6.765a.929.929,0,0,0,.93.93h1.079a.929.929,0,0,0,.93-.93v-6.765a.93.93,0,0,0-.273-.657h0a.93.93,0,0,0-.658-.272h-1.079a.929.929,0,0,0-.93.93Z" transform="translate(-98.767 -98.956)" fill="#1c3c50" fill-rule="evenodd"/>
      </g>
      <path id="Path_2114" data-name="Path 2114" d="M111.574,31.033l-.053-.067a1.68,1.68,0,0,0-.793-.536l-2.483-.793-.452-1.089,1.2-2.322a1.666,1.666,0,0,0-.3-1.947l-2.441-2.443a1.668,1.668,0,0,0-1.947-.3l-2.322,1.2-1.088-.449L100.1,19.8a1.677,1.677,0,0,0-.6-.846l-.071-.047a1.667,1.667,0,0,0-.919-.275h-3.44A1.668,1.668,0,0,0,93.472,19.8l-.793,2.486-1.089.451-2.323-1.2a1.673,1.673,0,0,0-1.95.3l-2.439,2.439-.061.067a1.664,1.664,0,0,0-.241,1.884l1.2,2.324-.451,1.086-1.066.342h-2.2v1.1H99.277V46.519H100.5v-.085l.393-1.232,1.088-.452,2.323,1.2a1.674,1.674,0,0,0,1.95-.3l2.438-2.438.061-.066a1.668,1.668,0,0,0,.242-1.884l-1.2-2.323.449-1.087,2.485-.794a1.661,1.661,0,0,0,.846-.6l.048-.071a1.673,1.673,0,0,0,.275-.918V32.022A1.666,1.666,0,0,0,111.574,31.033Zm-11.89-.24,0,0a2.757,2.757,0,0,0-1.953-.812H91.316a6.666,6.666,0,0,1,1.8-1.768,6.639,6.639,0,0,1,9.187,9.22,6.669,6.669,0,0,1-1.808,1.816v-6.5A2.758,2.758,0,0,0,99.683,30.793Zm10.494,4.641-2.473.79a1.645,1.645,0,0,0-.627.358,1.671,1.671,0,0,0-.411.6L106.2,38.3a1.634,1.634,0,0,0-.128.705,1.671,1.671,0,0,0,.186.7l1.192,2.311-2.394,2.4-2.311-1.195a1.687,1.687,0,0,0-.7-.186,1.645,1.645,0,0,0-.709.129l-.843.349V41.223A8.352,8.352,0,1,0,89.329,29.978H87.038l.329-.794a1.637,1.637,0,0,0-.059-1.4l-1.192-2.311,2.4-2.4,2.311,1.192a1.662,1.662,0,0,0,.694.187h0a1.658,1.658,0,0,0,.709-.129l1.122-.466a1.67,1.67,0,0,0,.592-.41,1.634,1.634,0,0,0,.36-.625c.253-.807.507-1.684.79-2.475h3.383l.79,2.473a1.673,1.673,0,0,0,.359.627,1.641,1.641,0,0,0,.594.411l1.12.465a1.651,1.651,0,0,0,1.407-.058l2.312-1.192,2.395,2.393L106.26,27.78a1.669,1.669,0,0,0-.186.7,1.635,1.635,0,0,0,.107.652l.021.057.466,1.121a1.655,1.655,0,0,0,.409.593,1.675,1.675,0,0,0,.628.358l2.472.79Z" transform="translate(-55.5)" fill="#1c3c50" fill-rule="evenodd"/>
      <path id="Path_2115" data-name="Path 2115" d="M36.423,85.036v.206a.859.859,0,0,1-1.719,0v-.206H8.08a.055.055,0,0,0-.036.012v0a.058.058,0,0,0-.015.035v1.636a.058.058,0,0,0,.015.035.054.054,0,0,0,.036.015H46.363a.05.05,0,0,0,.035-.015.046.046,0,0,0,.015-.035V85.086a.044.044,0,0,0-.015-.035l-.009-.009a.055.055,0,0,0-.026-.006H44.419a.858.858,0,0,1-.486-.15.863.863,0,0,1-.486.15h-1.1v.206a.859.859,0,0,1-1.719,0v-.206H39.383v.206a.859.859,0,0,1-1.719,0v-.206Zm8.8-1.711v-21.1a1.771,1.771,0,0,0-1.769-1.769H10.877a1.772,1.772,0,0,0-1.769,1.769V83.317H8.08a1.764,1.764,0,0,0-1.248.521v0a1.765,1.765,0,0,0-.52,1.25v1.636A1.771,1.771,0,0,0,8.08,88.491H46.363a1.772,1.772,0,0,0,1.769-1.769V85.086a1.762,1.762,0,0,0-.519-1.25l-.063-.058a1.762,1.762,0,0,0-1.187-.461H45.335a.928.928,0,0,0-.114.007ZM10.877,62.179a.045.045,0,0,0-.035.015.044.044,0,0,0-.015.035V83.317H43.5V62.229a.052.052,0,0,0-.015-.035.047.047,0,0,0-.036-.015Zm6.508,2.04a.859.859,0,1,1,0,1.719H14.774a.859.859,0,1,1,0-1.719Zm22.166,0a.859.859,0,1,1,0,1.719h-.643a.859.859,0,0,1,0-1.719Zm-2.846,0a.859.859,0,0,1,0,1.719h-.643a.859.859,0,1,1,0-1.719Z" transform="translate(0 -30.649)" fill="#00aef0" fill-rule="evenodd"/>
      <rect id="Rectangle_170" data-name="Rectangle 170" width="34.36" height="1.245" transform="translate(10.168 36.559)" fill="#00aef0"/>
    </g>
    <rect id="icon-area" width="52" height="52" transform="translate(437.043 446.515)" fill="none"/>
  </g>
</svg>
