<svg xmlns="http://www.w3.org/2000/svg" width="28" height="28" viewBox="0 0 28 28">
  <g id="icon-marketing-analytics" transform="translate(-499.393 -758.728)">
    <g id="Group_1677-inner" data-name="Group 1677-inner" transform="translate(258.373 958.792)">
      <path id="Path_2433" data-name="Path 2433" d="M264.972-191.845a.784.784,0,0,0-.271-.59l-6.285-6.289a.778.778,0,0,0-.6-.279c-.023,0-.046,0-.069,0h-10.4l0,0v0a2.265,2.265,0,0,0-1.609.666,2.267,2.267,0,0,0-.67,1.609v21.318h0a2.278,2.278,0,0,0,.664,1.608,2.274,2.274,0,0,0,1.611.668v0h15.337a2.275,2.275,0,0,0,1.609-.67,2.278,2.278,0,0,0,.668-1.609v-2.36h0v-1.55h0l.006-12.461C264.97-191.8,264.972-191.822,264.972-191.845Zm-6.377-4.515,3.736,3.74h-3.007a.724.724,0,0,1-.514-.212l0,0a.725.725,0,0,1-.212-.515Zm4.825,20.956a.734.734,0,0,1-.216.516h0a.735.735,0,0,1-.517.216H247.348v0a.731.731,0,0,1-.515-.216.736.736,0,0,1-.218-.517h0v-21.318a.731.731,0,0,1,.214-.519.731.731,0,0,1,.515-.216l0,0v0l9.695,0v4.1a2.28,2.28,0,0,0,.663,1.6l.01.01a2.279,2.279,0,0,0,1.608.668h4.1Q263.422-183.24,263.419-175.405Z" transform="translate(0 0)" fill="#1c3c50" fill-rule="evenodd"/>
      <path id="Path_2434" data-name="Path 2434" d="M268.165-174.534h-5.427a.668.668,0,0,1-.668-.668.668.668,0,0,1,.668-.668h5.427a.668.668,0,0,1,.668.668A.668.668,0,0,1,268.165-174.534Z" transform="translate(-13.755 -18.716)" fill="#00adee"/>
      <path id="Path_2435" data-name="Path 2435" d="M268.165-159.643h-5.427a.668.668,0,0,1-.668-.668.668.668,0,0,1,.668-.668h5.427a.668.668,0,0,1,.668.668A.668.668,0,0,1,268.165-159.643Z" transform="translate(-13.755 -30.764)" fill="#1c3c50"/>
      <path id="Path_2436" data-name="Path 2436" d="M275.063-89.012H262.737a.668.668,0,0,1-.668-.668.668.668,0,0,1,.668-.668h12.326a.668.668,0,0,1,.668.668A.668.668,0,0,1,275.063-89.012Z" transform="translate(-13.755 -87.91)" fill="#1c3c50"/>
      <g id="Group_1676" data-name="Group 1676" transform="translate(248.583 -188.349)">
        <path id="Path_2437" data-name="Path 2437" d="M264.147-131.07a.666.666,0,0,1-.473-.2.668.668,0,0,1,0-.945l5.144-5.144,2.569,2.569,2.839-2.838a.668.668,0,0,1,.945,0,.668.668,0,0,1,0,.945l-3.783,3.783-2.569-2.569-4.2,4.2A.666.666,0,0,1,264.147-131.07Z" transform="translate(-263.479 138.846)" fill="#00adee"/>
        <g id="Group_1675" data-name="Group 1675" transform="translate(9.697 0)">
          <path id="Path_2438" data-name="Path 2438" d="M316.624-139.981l.862-3.218-3.218.862Z" transform="translate(-314.268 143.2)" fill="#00adee"/>
        </g>
      </g>
    </g>
    <rect id="Group_1677-area" data-name="Group 1677-area" width="28" height="28" transform="translate(499.392 758.728)" fill="none"/>
  </g>
</svg>
