<svg xmlns="http://www.w3.org/2000/svg" width="28" height="28" viewBox="0 0 28 28">
  <g id="icon-support" transform="translate(-498.798 -760.21)">
    <g id="Group_1673-inner" data-name="Group 1673-inner" transform="translate(129.091 255.007)">
      <path id="Path_2431" data-name="Path 2431" d="M389.453,508.755l0-.006a2.578,2.578,0,0,0-1.822-.756H373.487a2.565,2.565,0,0,0-1.742.685l-.08.072a2.573,2.573,0,0,0-.756,1.822v13.846h0a1.082,1.082,0,0,0,1.929.671l2.995-3.787h1.391v-2.17h-1.91a1.089,1.089,0,0,0-.914.494l-1.325,1.678V510.571a.407.407,0,0,1,.121-.287l.028-.03a.417.417,0,0,1,.259-.091h14.141a.411.411,0,0,1,.293.121.4.4,0,0,1,.119.287v2.338h2.17v-2.338A2.553,2.553,0,0,0,389.453,508.755Z" transform="translate(0 0)" fill="#00aef0" fill-rule="evenodd"/>
      <path id="Path_2432" data-name="Path 2432" d="M412.264,526.559l-.077-.072a2.568,2.568,0,0,0-1.747-.685H396.3a2.573,2.573,0,0,0-1.822.756l0,0a2.571,2.571,0,0,0-.756,1.819v8.146a2.582,2.582,0,0,0,2.581,2.581h11.792l2.995,3.787a1.078,1.078,0,0,0,1.927-.668h.006V528.381A2.573,2.573,0,0,0,412.264,526.559Zm-1.413,12.554-1.328-1.678a1.083,1.083,0,0,0-.911-.5H396.3a.416.416,0,0,1-.293-.121.407.407,0,0,1-.119-.29v-8.146a.4.4,0,0,1,.119-.29.408.408,0,0,1,.293-.119h14.138a.422.422,0,0,1,.265.091l.025.028a.414.414,0,0,1,.121.29Z" transform="translate(-16.514 -12.894)" fill="#1c3c50" fill-rule="evenodd"/>
    </g>
    <rect id="Group_1673-area" data-name="Group 1673-area" width="28" height="28" transform="translate(498.798 760.21)" fill="none"/>
  </g>
</svg>
