<svg xmlns="http://www.w3.org/2000/svg" width="52" height="52" viewBox="0 0 52 52">
  <g id="icon-standard-website" transform="translate(-432.444 -451.605)">
    <g id="icon-standard-website-inner" transform="translate(437 463.089)">
      <path id="Path_2075" data-name="Path 2075" d="M52.649,85.913v.214a.881.881,0,1,1-1.763,0v-.214h-27.3a.055.055,0,0,0-.036.013v0a.058.058,0,0,0-.015.036v1.694a.058.058,0,0,0,.015.036.055.055,0,0,0,.036.016h39.26a.05.05,0,0,0,.036-.016.048.048,0,0,0,.016-.036V85.965a.046.046,0,0,0-.016-.036l-.009-.009a.057.057,0,0,0-.027-.007H60.849a.875.875,0,0,1-.5-.156.879.879,0,0,1-.5.156H58.721v.214a.881.881,0,1,1-1.763,0v-.214H55.685v.214a.882.882,0,1,1-1.763,0v-.214Zm9.023-1.773V62.292A1.832,1.832,0,0,0,61.14,61a1.8,1.8,0,0,0-1.283-.538H26.452A1.8,1.8,0,0,0,25.17,61a1.833,1.833,0,0,0-.532,1.295v21.84H23.583a1.8,1.8,0,0,0-1.28.54v0a1.836,1.836,0,0,0-.533,1.295v1.694a1.838,1.838,0,0,0,.532,1.295,1.806,1.806,0,0,0,1.282.538h39.26a1.8,1.8,0,0,0,1.282-.538,1.835,1.835,0,0,0,.532-1.295V85.965a1.834,1.834,0,0,0-.532-1.295l-.064-.06a1.8,1.8,0,0,0-1.218-.478H61.788a.936.936,0,0,0-.116.008Zm-35.22-21.9a.046.046,0,0,0-.036.016.047.047,0,0,0-.015.037v21.84H59.909V62.292a.054.054,0,0,0-.015-.037.048.048,0,0,0-.036-.016ZM55.817,79.062a.89.89,0,0,1,0,1.78H30.536a.89.89,0,0,1,0-1.78ZM33.126,64.353a.89.89,0,0,1,0,1.78H30.448a.89.89,0,0,1,0-1.78Zm22.732,0a.89.89,0,0,1,0,1.78H55.2a.89.89,0,0,1,0-1.78Zm-2.919,0a.89.89,0,0,1,0,1.78h-.66a.89.89,0,0,1,0-1.78ZM51.46,76.311a.89.89,0,0,1,0,1.78H35.009a.89.89,0,0,1,0-1.78Z" transform="translate(-21.769 -60.46)" fill="#00aef0" fill-rule="evenodd"/>
      <path id="Path_2076" data-name="Path 2076" d="M76.546,85.942H51.416a.882.882,0,0,0-.882.88v5.421a.881.881,0,0,0,.882.881H76.546a.881.881,0,0,0,.882-.881V86.822A.882.882,0,0,0,76.546,85.942Zm-.882,5.421H52.3V87.7H75.664Z" transform="translate(-42.659 -78.862)" fill="#1c3c50" fill-rule="evenodd"/>
    </g>
    <rect id="icon-standard-website-area" width="52" height="52" transform="translate(432.444 451.605)" fill="none"/>
  </g>
</svg>
